<svg xmlns="http://www.w3.org/2000/svg" xmlns:xlink="http://www.w3.org/1999/xlink" width="500" zoomAndPan="magnify" viewBox="0 0 375 374.999991" height="500" preserveAspectRatio="xMidYMid meet" version="1.0"><defs><g/><clipPath id="bab2665c24"><path d="M 113.699219 59.902344 L 301.027344 59.902344 L 301.027344 256.402344 L 113.699219 256.402344 Z M 113.699219 59.902344 " clip-rule="nonzero"/></clipPath></defs><rect x="-37.5" width="450" fill="#ffffff" y="-37.499999" height="449.999989" fill-opacity="1"/><rect x="-37.5" width="450" fill="#ffffff" y="-37.499999" height="449.999989" fill-opacity="1"/><rect x="-37.5" width="450" fill="#ffffff" y="-37.499999" height="449.999989" fill-opacity="1"/><g clip-path="url(#bab2665c24)"><path fill="#ffffff" d="M 160.273438 101.703125 C 161.125 97.261719 173.796875 93.636719 177.722656 93.324219 C 182.460938 92.945312 185.121094 92.988281 189.363281 95.03125 L 189.355469 95.019531 C 189.691406 95.285156 189.53125 95.128906 189.789062 95.515625 C 189.492188 95.59375 189.414062 95.652344 189.125 95.582031 C 183.082031 94.042969 165.960938 98.082031 160.273438 101.703125 Z M 161.453125 121.007812 C 160.890625 117.058594 177.277344 112.921875 180.085938 112.597656 C 184.132812 112.140625 188.878906 111.992188 192.578125 113.769531 C 183.558594 114.589844 169.246094 116.820312 161.453125 121.007812 Z M 143.9375 80.554688 C 142.253906 85.917969 141.066406 90.121094 144.273438 95.335938 C 146.289062 98.605469 148.882812 99.058594 152.261719 100.15625 C 140.40625 103.410156 135.332031 87.023438 143.9375 80.554688 Z M 219.265625 99.957031 C 225.761719 99.414062 233.019531 99.007812 234.078125 90.953125 C 234.554688 87.386719 233.398438 85.460938 231.722656 82.550781 C 238.28125 85.511719 237.9375 95.929688 232.140625 99.570312 C 227.808594 102.285156 223.703125 101.605469 219.265625 99.957031 Z M 167.695312 145.847656 C 164.042969 142.078125 178.960938 133.0625 183.269531 141.789062 L 183.261719 141.789062 C 181.621094 141.582031 180.152344 141.140625 178.554688 141.394531 C 173.546875 142.1875 171.3125 142.492188 167.695312 145.847656 Z M 193.28125 140.933594 C 192.558594 138.433594 200.71875 132.875 206.960938 138.640625 C 207.75 139.371094 208.730469 140.734375 208.332031 141.859375 C 208.046875 141.917969 208.078125 141.96875 207.847656 141.851562 C 204.890625 140.386719 206.917969 140.824219 203.179688 140.035156 C 198.34375 139.015625 196.703125 140.488281 193.28125 140.933594 Z M 183.003906 171.636719 C 188.929688 173.652344 192.0625 174 197.394531 170.246094 C 197.722656 171.195312 197.570312 171.71875 196.910156 172.578125 C 191.867188 179.101562 182.402344 174.460938 183.003906 171.636719 Z M 212.183594 169.507812 C 209.925781 169.476562 207.820312 169.210938 206.136719 168.746094 C 199.144531 166.8125 196.347656 164.351562 189.085938 165.4375 L 189.085938 165.390625 C 183.035156 166.160156 180.777344 168.90625 174.945312 171.957031 C 173.171875 172.875 170.789062 173.652344 168.167969 174.148438 C 172.894531 181.453125 179.53125 186.746094 189.066406 186.359375 C 203.339844 185.796875 209.195312 179.28125 212.183594 169.507812 Z M 188.957031 157.804688 C 189.589844 156.382812 191.34375 153.847656 195.863281 153.246094 C 200.003906 152.691406 207.949219 156.53125 214.425781 158.695312 C 214.644531 157.203125 214.84375 155.675781 215.039062 154.113281 C 215.917969 147.023438 215.328125 138.265625 214.210938 130.171875 C 211.230469 129.046875 208.609375 128.746094 204.496094 128.183594 C 188.957031 126.054688 169.136719 128.71875 156.527344 138.878906 C 156.902344 141.5625 157.394531 144.328125 158.070312 147.183594 C 159.285156 152.355469 160.90625 158.566406 163.28125 164.5 C 169.277344 161.132812 176.59375 155.171875 181.023438 154.835938 C 185.59375 154.480469 187.960938 156.5625 188.957031 157.804688 Z M 188.511719 207.292969 C 188.492188 207.332031 188.472656 207.378906 188.453125 207.421875 C 188.472656 207.378906 188.503906 207.332031 188.511719 207.292969 Z M 188.511719 207.292969 Z M 184.554688 201.191406 C 184.585938 201.132812 184.605469 201.082031 184.605469 201.050781 C 184.585938 201.089844 184.566406 201.140625 184.554688 201.191406 Z M 184.554688 201.191406 Z M 182.214844 200.222656 C 185.289062 199.503906 187.710938 199.542969 186.921875 201.863281 C 185.972656 204.597656 177.839844 208.261719 175.242188 208.703125 C 175.910156 208.082031 180.105469 205.011719 182.648438 202.949219 C 180.035156 203.738281 177.484375 204.773438 174.882812 205.605469 C 170.671875 206.925781 171.234375 204.308594 172.125 203.707031 C 175.722656 201.269531 178.691406 200.3125 182.214844 200.222656 Z M 201.0625 194.269531 C 207.511719 192.039062 212.902344 192.1875 217.820312 195.71875 C 219.3125 194.445312 220.457031 193.230469 221.082031 190.972656 C 222.597656 185.472656 220.675781 181.050781 216.988281 177.148438 C 224.878906 177.769531 227.859375 193.105469 218.816406 196.492188 C 219.894531 197.378906 220.953125 198.433594 222.003906 199.679688 C 225.019531 203.265625 226.652344 205.683594 231.089844 208.09375 C 236.015625 210.765625 221.746094 218.785156 207.988281 210.667969 C 204.734375 208.753906 204.417969 207.933594 201.035156 206.542969 C 200.933594 206.699219 200.824219 206.859375 200.71875 207.007812 C 199.460938 208.941406 187.386719 210.589844 186.070312 207.53125 C 184.179688 212.167969 179.710938 214.488281 174.390625 216.257812 C 173.746094 216.472656 151.363281 222.332031 156.230469 216.40625 C 160.316406 211.421875 158.761719 205.296875 164.101562 199.925781 C 157.375 193.914062 162.945312 181.523438 166.625 183.554688 C 162.410156 188.039062 162.894531 193.597656 166.089844 198.179688 C 170.847656 194.484375 181.53125 192.207031 184.625 195.78125 C 176.890625 194.140625 167.070312 199.582031 163.714844 206.484375 C 162.023438 209.96875 161.878906 213.109375 160.335938 215.941406 C 169.484375 215.507812 181.488281 214.292969 185.980469 206 L 186.949219 203.964844 C 187.15625 203.195312 187.328125 202.226562 187.394531 200.992188 C 187.601562 197.121094 187.453125 194.695312 184.109375 194.269531 C 185.933594 192.226562 188.929688 194.851562 189.464844 196.777344 C 190.175781 199.355469 189.828125 203.324219 188.949219 206.175781 C 191.429688 206.285156 196.871094 205.929688 198.640625 205.378906 C 199.988281 201.722656 200.214844 195.90625 197.277344 192.9375 C 198.523438 192.085938 199.964844 192.75 201.0625 194.269531 Z M 203.160156 200.214844 C 203.140625 200.175781 203.132812 200.144531 203.113281 200.105469 L 203.101562 200.132812 C 203.121094 200.152344 203.140625 200.183594 203.160156 200.214844 Z M 203.160156 200.214844 Z M 208.820312 205.179688 C 207.722656 205 204.625 204.5 202.457031 203.363281 C 202.28125 204.003906 202.050781 204.644531 201.746094 205.277344 C 205.542969 205.832031 209.640625 210.460938 215.625 211.46875 C 221.953125 212.523438 223.4375 211.804688 227.667969 209.652344 C 225.308594 208.003906 222.851562 205.257812 221.417969 203.292969 C 214.554688 193.933594 211.734375 193.953125 201.242188 194.515625 C 201.914062 195.535156 202.4375 196.867188 202.695312 198.367188 C 205.664062 198.121094 210.359375 199.9375 211.5 201.03125 C 211.015625 201.714844 206.742188 201.015625 204.082031 201.183594 C 205.496094 202.496094 207.917969 204.398438 208.820312 205.179688 Z M 244.613281 217.402344 C 244.917969 216.308594 245.058594 215.082031 245.007812 213.730469 C 244.632812 204.734375 233.355469 207.738281 236.125 215.011719 C 237.5 218.667969 241.25 219.082031 244.613281 217.402344 Z M 244.613281 217.402344 Z M 246.007812 162.339844 C 245.996094 162.300781 245.976562 162.277344 245.96875 162.257812 C 245.976562 162.289062 245.988281 162.308594 246.007812 162.339844 Z M 268.101562 152.257812 C 268.09375 152.238281 268.082031 152.21875 268.074219 152.207031 C 268.082031 152.226562 268.09375 152.238281 268.101562 152.257812 Z M 268.101562 152.257812 Z M 270.695312 151.625 C 270.695312 151.597656 270.695312 151.574219 270.695312 151.554688 C 270.695312 151.605469 270.695312 151.605469 270.695312 151.625 Z M 270.695312 151.625 Z M 270.488281 153.164062 C 270.59375 152.457031 270.675781 151.910156 270.695312 151.664062 C 270.449219 151.429688 270.277344 151.28125 270.101562 151.152344 C 270.269531 151.773438 270.367188 152.472656 270.488281 153.164062 Z M 277.390625 150.855469 C 277.390625 150.84375 277.378906 150.824219 277.378906 150.816406 L 277.378906 150.804688 C 277.378906 150.84375 277.378906 150.824219 277.390625 150.855469 Z M 277.390625 150.855469 Z M 288.953125 157.097656 C 289.082031 157.054688 289.210938 157.015625 289.335938 156.976562 C 289.179688 157.015625 289.0625 157.046875 288.953125 157.097656 Z M 288.953125 157.097656 Z M 286.351562 158.84375 C 287.003906 158.152344 287.757812 157.597656 288.585938 157.242188 C 288.6875 154.410156 288.042969 151.449219 288.113281 148.613281 C 287.320312 152.246094 286.875 155.03125 286.351562 158.84375 Z M 296.707031 140.203125 C 296.757812 140.191406 296.785156 140.203125 296.796875 140.230469 C 298.023438 145.238281 297.429688 153.066406 300.148438 157.261719 C 303.222656 162.003906 297.378906 166.121094 295.304688 170.058594 C 289.457031 181.167969 288.171875 200.558594 270.992188 200.984375 L 266.609375 200.628906 L 270.714844 200.074219 C 289.109375 196.6875 285.601562 177.832031 294.679688 166 C 295.835938 164.492188 300.289062 160.855469 298.734375 158.210938 C 296.164062 153.808594 294.996094 147.183594 295.023438 142.234375 C 286.867188 145.789062 292.851562 151.980469 291.058594 158.507812 C 290.691406 159.871094 288.25 159.121094 285.898438 163.40625 C 284.304688 166.289062 284.234375 167.058594 283.34375 170.117188 L 283.078125 166.503906 C 283.226562 164.964844 283.710938 163.15625 284.53125 161.519531 C 284.375 157.105469 286.371094 144.800781 286.292969 144.445312 L 286.300781 144.4375 L 286.320312 144.4375 C 286.152344 144.132812 285.171875 143.6875 285.054688 143.617188 C 280.335938 140.902344 277.636719 138.511719 275.390625 134 C 272.917969 139.957031 276.28125 143.195312 279.695312 149.671875 C 280.84375 151.84375 277.902344 155.644531 277.183594 158.585938 C 276.074219 163.070312 276.320312 165.03125 275.667969 169.386719 C 274.582031 164.570312 274.414062 160.136719 275.757812 155.464844 C 275.808594 155.316406 277.410156 151.585938 277.390625 150.867188 C 276.195312 148.605469 274.671875 145.710938 273.75 142.796875 C 271.160156 139.957031 268.804688 137.722656 266.027344 136.125 C 265.074219 140.863281 266.601562 144.695312 270.824219 148.414062 C 275.273438 152.328125 272.167969 151.980469 271.714844 159.199219 C 271.546875 162.011719 271.832031 163.425781 272.257812 166.199219 C 270.386719 163.109375 270.210938 162.761719 269.992188 159.089844 C 269.933594 158.082031 270.023438 156.808594 270.160156 155.59375 C 269.28125 154.253906 268.46875 152.988281 268.160156 152.367188 L 268.023438 152.40625 C 262.316406 154.527344 262.316406 153.492188 255.945312 153.027344 L 255.917969 152.910156 C 255.097656 155.859375 253.289062 158.347656 251.289062 159.496094 C 250.765625 159.789062 250.199219 159.9375 249.589844 160.039062 C 252.199219 161.480469 261.011719 161.964844 262.890625 160.105469 C 264.761719 158.261719 263.75 159.078125 265.957031 157.628906 C 265.441406 158.953125 265.007812 160.046875 264.414062 160.9375 C 267.726562 165.105469 266.09375 175.195312 264.382812 178.402344 C 261.277344 184.238281 253.496094 181.375 252.484375 175.84375 C 252.109375 169.8125 251.347656 167.730469 247.15625 166.128906 C 247.234375 168.855469 245.632812 170.976562 245.492188 174.90625 C 245.15625 184.5625 254.871094 192.273438 254.207031 203.628906 C 253.703125 212.347656 250.269531 217.394531 246.3125 219.605469 C 241.941406 229.320312 225.535156 229.25 216 225.566406 C 209.816406 223.1875 207.582031 221.351562 203.816406 216.109375 C 210.550781 222.902344 216.660156 225.660156 226.007812 226.132812 C 231.992188 226.4375 239.292969 225.242188 242.851562 220.820312 C 238.46875 221.539062 234.265625 219.25 233.1875 214.992188 C 230.4375 204.09375 247.183594 201.445312 247.402344 213.808594 C 247.410156 214.382812 247.390625 214.933594 247.351562 215.457031 C 248.203125 214.640625 248.964844 213.671875 249.546875 212.566406 C 254.859375 202.601562 249.4375 194.941406 244.839844 185.3125 C 239.625 174.382812 245.304688 168.222656 245.96875 162.257812 C 252.269531 164.234375 254.492188 166.671875 254.207031 171.738281 C 254.742188 176.242188 254.871094 179.003906 260.21875 178.640625 C 264.453125 178.363281 264.335938 165.863281 263.078125 162.367188 C 262.457031 162.84375 261.675781 163.214844 260.65625 163.511719 C 256.234375 164.796875 249.4375 164.511719 245.820312 161.035156 C 245.828125 160.90625 245.929688 160.757812 246.085938 160.609375 C 246.046875 160.621094 246.007812 160.628906 245.96875 160.652344 C 250.535156 156.96875 251.59375 156.691406 252.703125 151.152344 C 252.929688 150.015625 254.929688 149.828125 256.886719 149.867188 C 261.863281 149.984375 262.5625 149.90625 267.460938 149.078125 C 267.636719 149.046875 267.804688 149.039062 267.964844 149.039062 C 264.621094 144.890625 262.097656 137.535156 266.460938 134.386719 C 269.578125 135.570312 271.605469 137.574219 273.109375 140.191406 C 272.554688 136.855469 273.1875 133.734375 276.492188 131.820312 C 279.921875 135.027344 279.40625 135.609375 281.960938 138.535156 C 285.519531 142.628906 288.953125 141.109375 288.84375 144.683594 C 288.992188 144.320312 289.160156 143.964844 289.359375 143.617188 C 291.058594 140.644531 293.382812 139.648438 296.675781 139.898438 Z M 182.390625 73.167969 C 186.355469 70.21875 189.820312 69.113281 194.921875 69.832031 C 202.101562 70.859375 210.164062 76.875 207.988281 85.019531 C 205.851562 92.957031 195.367188 92.089844 194.425781 90.023438 C 195.761719 90.210938 196.871094 90.222656 198.34375 90.082031 C 205.050781 89.5 207.699219 83.773438 204.082031 78.382812 C 198.957031 70.730469 190.3125 70.867188 182.390625 73.167969 Z M 264.96875 204.09375 C 249.597656 253.253906 197.59375 266.503906 159.089844 249.128906 C 134.253906 237.929688 115.796875 212.523438 113.847656 180.65625 C 113.207031 170.109375 114.648438 159.929688 117.824219 150.488281 C 116.25 157.953125 115.636719 165.773438 116.132812 173.800781 C 118.269531 208.832031 137.300781 234.386719 162.195312 245.554688 C 197.929688 261.578125 244.929688 249.246094 264.453125 203.570312 Z M 163.578125 227.433594 C 147.953125 218.777344 136.222656 203.402344 132.878906 184.457031 C 129.542969 165.496094 135.308594 147.054688 147.050781 133.585938 C 138.546875 147.242188 132.441406 165.0625 135.695312 183.535156 C 138.949219 202 150.917969 217.5 163.578125 227.433594 Z M 163.578125 227.433594 Z M 223.109375 120.238281 C 234.5625 126.585938 243.070312 135.996094 248.332031 146.808594 L 246.351562 148.605469 C 241.578125 138.246094 233.800781 128.628906 223.109375 120.238281 Z M 154.738281 101.257812 C 155.882812 114.085938 154.785156 125.324219 156.40625 137.992188 C 167.496094 124.570312 198.167969 120.433594 213.636719 126.300781 C 213.238281 123.859375 212.804688 121.53125 212.371094 119.367188 C 210.429688 109.296875 209.53125 96.777344 215.160156 91.101562 C 214.128906 97.6875 213.613281 101.792969 213.851562 106.207031 C 218.363281 104.875 223.972656 106.226562 228.628906 105.960938 C 241.832031 105.191406 244.089844 89.390625 238.28125 83.082031 C 231.390625 75.132812 224.582031 73.320312 213.84375 75.648438 C 214.179688 76.605469 214.476562 77.613281 214.710938 78.671875 C 212.183594 74.886719 209.835938 72.042969 207.214844 69.960938 C 203.011719 66.613281 198.097656 65.203125 190.550781 64.925781 C 180.710938 64.558594 174.875 66.476562 168.632812 72.125 L 169.1875 72.429688 L 169.097656 72.390625 C 169.433594 72.558594 169.277344 72.449219 169.570312 72.714844 C 169.304688 72.816406 169.1875 72.894531 168.898438 72.804688 C 168.652344 72.714844 168.40625 72.648438 168.148438 72.566406 C 167.160156 73.484375 166.160156 74.492188 165.132812 75.609375 C 165.597656 74.375 166.0625 73.238281 166.566406 72.203125 C 158.335938 70.601562 145.675781 73.023438 139.464844 78.097656 C 132.414062 83.851562 130.148438 91.996094 135.488281 101.714844 C 140.394531 108.386719 144.765625 109.683594 152.558594 108.507812 C 138.871094 118.785156 113.375 90.933594 136.5 74.976562 C 143.816406 69.921875 158.78125 67.964844 166.824219 71.105469 L 167.050781 71.234375 C 168.761719 68.035156 170.976562 65.6875 174.902344 63.59375 C 188.324219 56.433594 206.308594 59.683594 212.875 73.328125 C 218.054688 69.003906 229.28125 70.898438 234.40625 74.007812 C 245.078125 80.476562 250.300781 92.441406 241.566406 102.988281 C 234.226562 111.855469 224.414062 107.421875 214.871094 106.820312 C 214.160156 106.769531 214.058594 106.789062 213.890625 106.75 C 214.121094 110.097656 214.78125 113.679688 215.988281 118.695312 C 218.519531 129.210938 219.253906 143.617188 218.175781 154.46875 C 218.007812 156.136719 217.820312 157.875 217.601562 159.625 C 219.765625 160.148438 221.605469 160.292969 222.851562 159.75 C 228.003906 157.480469 223.941406 151.378906 223.941406 151.378906 C 223.941406 151.378906 225.484375 150.085938 227.945312 152.910156 C 229.171875 154.3125 229.933594 156.699219 229.847656 159.128906 C 229.597656 165.625 222.65625 168.628906 215.800781 169.339844 C 213.675781 177.464844 209.667969 184.792969 201.242188 188.019531 C 184.03125 194.636719 172.09375 187.40625 164.527344 174.621094 C 157.949219 175.085938 151.066406 173.453125 149.265625 167.550781 C 148.554688 165.222656 148.695312 162.753906 149.535156 161.144531 C 151.214844 157.894531 153.054688 158.832031 153.054688 158.832031 C 153.054688 158.832031 150.640625 165.578125 156.269531 166.703125 C 157.386719 166.921875 158.78125 166.601562 160.355469 165.953125 C 160.214844 165.605469 160.085938 165.25 159.949219 164.894531 C 152.441406 145.910156 149.859375 121.769531 154.738281 101.257812 " fill-opacity="1" fill-rule="evenodd"/></g><g fill="#ffffff" fill-opacity="1"><g transform="translate(79.997526, 299.718732)"><g><path d="M 36.015625 -35.546875 C 36.898438 -35.378906 37.5625 -35.078125 38 -34.640625 C 38.445312 -34.210938 38.671875 -33.71875 38.671875 -33.15625 C 38.671875 -32.207031 38.40625 -31.519531 37.875 -31.09375 C 37.351562 -30.664062 36.519531 -30.492188 35.375 -30.578125 C 32.800781 -30.773438 30.796875 -30.910156 29.359375 -30.984375 C 27.921875 -31.054688 26.03125 -31.109375 23.6875 -31.140625 C 22.625 -25.878906 21.648438 -20.597656 20.765625 -15.296875 C 20.453125 -13.347656 20.125 -11.097656 19.78125 -8.546875 C 19.4375 -5.992188 19.207031 -3.929688 19.09375 -2.359375 C 19.039062 -1.523438 18.695312 -0.882812 18.0625 -0.4375 C 17.4375 0 16.679688 0.21875 15.796875 0.21875 C 14.859375 0.21875 14.128906 -0.0078125 13.609375 -0.46875 C 13.097656 -0.925781 12.84375 -1.523438 12.84375 -2.265625 C 12.84375 -2.953125 12.945312 -4.085938 13.15625 -5.671875 C 13.375 -7.253906 13.628906 -8.921875 13.921875 -10.671875 C 14.234375 -12.410156 14.472656 -13.921875 14.640625 -15.203125 C 14.960938 -17.367188 15.320312 -19.523438 15.71875 -21.671875 C 16.113281 -23.816406 16.515625 -25.84375 16.921875 -27.75 C 17.003906 -28.175781 17.101562 -28.664062 17.21875 -29.21875 C 17.332031 -29.78125 17.460938 -30.40625 17.609375 -31.09375 C 14.804688 -31.007812 12.601562 -30.78125 11 -30.40625 C 9.40625 -30.03125 8.269531 -29.507812 7.59375 -28.84375 C 6.925781 -28.175781 6.59375 -27.3125 6.59375 -26.25 C 6.59375 -25.28125 6.878906 -24.351562 7.453125 -23.46875 C 7.566406 -23.269531 7.625 -23.054688 7.625 -22.828125 C 7.625 -22.285156 7.300781 -21.773438 6.65625 -21.296875 C 6.019531 -20.828125 5.359375 -20.59375 4.671875 -20.59375 C 4.179688 -20.59375 3.78125 -20.738281 3.46875 -21.03125 C 2.894531 -21.507812 2.421875 -22.195312 2.046875 -23.09375 C 1.679688 -24 1.5 -25.023438 1.5 -26.171875 C 1.5 -28.597656 2.289062 -30.546875 3.875 -32.015625 C 5.457031 -33.484375 7.867188 -34.5625 11.109375 -35.25 C 14.347656 -35.9375 18.507812 -36.28125 23.59375 -36.28125 C 26.738281 -36.28125 29.242188 -36.222656 31.109375 -36.109375 C 32.984375 -35.992188 34.617188 -35.804688 36.015625 -35.546875 Z M 36.015625 -35.546875 "/></g></g></g><g fill="#ffffff" fill-opacity="1"><g transform="translate(108.986828, 299.718732)"><g><path d="M 21.15625 -9.546875 C 21.53125 -9.546875 21.820312 -9.375 22.03125 -9.03125 C 22.25 -8.6875 22.359375 -8.21875 22.359375 -7.625 C 22.359375 -6.476562 22.085938 -5.59375 21.546875 -4.96875 C 20.484375 -3.6875 18.988281 -2.5 17.0625 -1.40625 C 15.132812 -0.320312 13.070312 0.21875 10.875 0.21875 C 7.875 0.21875 5.546875 -0.59375 3.890625 -2.21875 C 2.234375 -3.851562 1.40625 -6.082031 1.40625 -8.90625 C 1.40625 -10.875 1.816406 -12.707031 2.640625 -14.40625 C 3.472656 -16.101562 4.625 -17.453125 6.09375 -18.453125 C 7.570312 -19.453125 9.238281 -19.953125 11.09375 -19.953125 C 12.75 -19.953125 14.078125 -19.457031 15.078125 -18.46875 C 16.078125 -17.488281 16.578125 -16.15625 16.578125 -14.46875 C 16.578125 -12.5 15.867188 -10.804688 14.453125 -9.390625 C 13.035156 -7.984375 10.644531 -6.863281 7.28125 -6.03125 C 7.988281 -4.71875 9.34375 -4.0625 11.34375 -4.0625 C 12.632812 -4.0625 14.097656 -4.507812 15.734375 -5.40625 C 17.378906 -6.3125 18.800781 -7.492188 20 -8.953125 C 20.34375 -9.347656 20.726562 -9.546875 21.15625 -9.546875 Z M 10.359375 -15.765625 C 9.304688 -15.765625 8.414062 -15.148438 7.6875 -13.921875 C 6.957031 -12.691406 6.59375 -11.207031 6.59375 -9.46875 L 6.59375 -9.375 C 8.28125 -9.78125 9.609375 -10.378906 10.578125 -11.171875 C 11.546875 -11.972656 12.03125 -12.90625 12.03125 -13.96875 C 12.03125 -14.507812 11.878906 -14.941406 11.578125 -15.265625 C 11.285156 -15.597656 10.878906 -15.765625 10.359375 -15.765625 Z M 10.359375 -15.765625 "/></g></g></g><g fill="#ffffff" fill-opacity="1"><g transform="translate(124.958728, 299.718732)"><g><path d="M 10.015625 1.15625 C 8.535156 1.15625 7.398438 0.8125 6.609375 0.125 C 5.828125 -0.5625 5.4375 -1.332031 5.4375 -2.1875 C 5.4375 -2.925781 5.707031 -3.566406 6.25 -4.109375 C 6.789062 -4.648438 7.59375 -4.921875 8.65625 -4.921875 C 9.019531 -4.921875 9.453125 -4.882812 9.953125 -4.8125 C 10.453125 -4.75 10.832031 -4.703125 11.09375 -4.671875 C 11.0625 -5.410156 10.894531 -6.109375 10.59375 -6.765625 C 10.300781 -7.421875 9.925781 -8.054688 9.46875 -8.671875 C 9.007812 -9.285156 8.582031 -9.820312 8.1875 -10.28125 C 7.300781 -8.59375 6.421875 -7.191406 5.546875 -6.078125 C 4.671875 -4.960938 3.722656 -3.90625 2.703125 -2.90625 C 2.179688 -2.394531 1.640625 -2.140625 1.078125 -2.140625 C 0.617188 -2.140625 0.25 -2.300781 -0.03125 -2.625 C -0.320312 -2.957031 -0.46875 -3.367188 -0.46875 -3.859375 C -0.46875 -4.429688 -0.269531 -4.957031 0.125 -5.4375 L 0.6875 -6.125 C 2.257812 -8.0625 3.441406 -9.660156 4.234375 -10.921875 C 4.722656 -11.742188 5.296875 -12.847656 5.953125 -14.234375 C 6.609375 -15.617188 7.25 -17.054688 7.875 -18.546875 C 8.414062 -19.796875 9.546875 -20.421875 11.265625 -20.421875 C 12.066406 -20.421875 12.625 -20.347656 12.9375 -20.203125 C 13.25 -20.066406 13.40625 -19.84375 13.40625 -19.53125 C 13.40625 -19.351562 13.347656 -19.078125 13.234375 -18.703125 C 13.117188 -18.335938 12.960938 -17.972656 12.765625 -17.609375 C 12.242188 -16.578125 11.984375 -15.703125 11.984375 -14.984375 C 11.984375 -14.554688 12.132812 -14.085938 12.4375 -13.578125 C 12.738281 -13.066406 13.203125 -12.425781 13.828125 -11.65625 C 14.742188 -10.445312 15.4375 -9.421875 15.90625 -8.578125 C 16.382812 -7.742188 16.625 -6.828125 16.625 -5.828125 C 16.625 -5.535156 16.59375 -5.132812 16.53125 -4.625 C 17.925781 -5.164062 19.566406 -6.609375 21.453125 -8.953125 C 21.796875 -9.347656 22.179688 -9.546875 22.609375 -9.546875 C 22.984375 -9.546875 23.273438 -9.375 23.484375 -9.03125 C 23.703125 -8.6875 23.8125 -8.21875 23.8125 -7.625 C 23.8125 -6.539062 23.539062 -5.65625 23 -4.96875 C 21.570312 -3.195312 20.207031 -1.988281 18.90625 -1.34375 C 17.601562 -0.707031 16 -0.359375 14.09375 -0.296875 C 12.945312 0.671875 11.585938 1.15625 10.015625 1.15625 Z M 10.015625 1.15625 "/></g></g></g><g fill="#ffffff" fill-opacity="1"><g transform="translate(142.386523, 299.718732)"><g><path d="M 21.15625 -9.546875 C 21.53125 -9.546875 21.820312 -9.375 22.03125 -9.03125 C 22.25 -8.6875 22.359375 -8.21875 22.359375 -7.625 C 22.359375 -6.476562 22.085938 -5.59375 21.546875 -4.96875 C 20.316406 -3.457031 18.972656 -2.210938 17.515625 -1.234375 C 16.054688 -0.265625 14.382812 0.21875 12.5 0.21875 C 6.675781 0.21875 3.765625 -3.878906 3.765625 -12.078125 C 3.765625 -13.335938 3.804688 -14.609375 3.890625 -15.890625 L 2.234375 -15.890625 C 1.367188 -15.890625 0.785156 -16.046875 0.484375 -16.359375 C 0.191406 -16.671875 0.046875 -17.171875 0.046875 -17.859375 C 0.046875 -19.453125 0.6875 -20.25 1.96875 -20.25 L 4.40625 -20.25 C 4.894531 -23.394531 5.640625 -26.265625 6.640625 -28.859375 C 7.640625 -31.460938 8.84375 -33.535156 10.25 -35.078125 C 11.664062 -36.617188 13.1875 -37.390625 14.8125 -37.390625 C 16.019531 -37.390625 16.960938 -36.859375 17.640625 -35.796875 C 18.328125 -34.742188 18.671875 -33.421875 18.671875 -31.828125 C 18.671875 -27.398438 16.816406 -23.539062 13.109375 -20.25 L 17.90625 -20.25 C 18.363281 -20.25 18.691406 -20.148438 18.890625 -19.953125 C 19.085938 -19.753906 19.1875 -19.382812 19.1875 -18.84375 C 19.1875 -16.875 17.570312 -15.890625 14.34375 -15.890625 L 9.125 -15.890625 C 9.0625 -14.460938 9.03125 -13.347656 9.03125 -12.546875 C 9.03125 -9.578125 9.378906 -7.492188 10.078125 -6.296875 C 10.785156 -5.097656 11.894531 -4.5 13.40625 -4.5 C 14.632812 -4.5 15.71875 -4.867188 16.65625 -5.609375 C 17.601562 -6.347656 18.71875 -7.460938 20 -8.953125 C 20.34375 -9.347656 20.726562 -9.546875 21.15625 -9.546875 Z M 13.65625 -33.28125 C 13.226562 -33.28125 12.75 -32.742188 12.21875 -31.671875 C 11.695312 -30.597656 11.195312 -29.113281 10.71875 -27.21875 C 10.25 -25.320312 9.859375 -23.21875 9.546875 -20.90625 C 11.234375 -22.351562 12.5 -23.984375 13.34375 -25.796875 C 14.1875 -27.617188 14.609375 -29.269531 14.609375 -30.75 C 14.609375 -32.4375 14.289062 -33.28125 13.65625 -33.28125 Z M 13.65625 -33.28125 "/></g></g></g><g fill="#ffffff" fill-opacity="1"><g transform="translate(158.358423, 299.718732)"><g><path d="M 21.15625 -9.546875 C 21.53125 -9.546875 21.820312 -9.375 22.03125 -9.03125 C 22.25 -8.6875 22.359375 -8.21875 22.359375 -7.625 C 22.359375 -6.476562 22.085938 -5.59375 21.546875 -4.96875 C 20.484375 -3.6875 18.988281 -2.5 17.0625 -1.40625 C 15.132812 -0.320312 13.070312 0.21875 10.875 0.21875 C 7.875 0.21875 5.546875 -0.59375 3.890625 -2.21875 C 2.234375 -3.851562 1.40625 -6.082031 1.40625 -8.90625 C 1.40625 -10.875 1.816406 -12.707031 2.640625 -14.40625 C 3.472656 -16.101562 4.625 -17.453125 6.09375 -18.453125 C 7.570312 -19.453125 9.238281 -19.953125 11.09375 -19.953125 C 12.75 -19.953125 14.078125 -19.457031 15.078125 -18.46875 C 16.078125 -17.488281 16.578125 -16.15625 16.578125 -14.46875 C 16.578125 -12.5 15.867188 -10.804688 14.453125 -9.390625 C 13.035156 -7.984375 10.644531 -6.863281 7.28125 -6.03125 C 7.988281 -4.71875 9.34375 -4.0625 11.34375 -4.0625 C 12.632812 -4.0625 14.097656 -4.507812 15.734375 -5.40625 C 17.378906 -6.3125 18.800781 -7.492188 20 -8.953125 C 20.34375 -9.347656 20.726562 -9.546875 21.15625 -9.546875 Z M 10.359375 -15.765625 C 9.304688 -15.765625 8.414062 -15.148438 7.6875 -13.921875 C 6.957031 -12.691406 6.59375 -11.207031 6.59375 -9.46875 L 6.59375 -9.375 C 8.28125 -9.78125 9.609375 -10.378906 10.578125 -11.171875 C 11.546875 -11.972656 12.03125 -12.90625 12.03125 -13.96875 C 12.03125 -14.507812 11.878906 -14.941406 11.578125 -15.265625 C 11.285156 -15.597656 10.878906 -15.765625 10.359375 -15.765625 Z M 10.359375 -15.765625 "/></g></g></g><g fill="#ffffff" fill-opacity="1"><g transform="translate(174.330322, 299.718732)"><g><path d="M 37.171875 -27.40625 C 37.171875 -24.976562 36.3125 -22.882812 34.59375 -21.125 C 32.882812 -19.375 30.390625 -18.113281 27.109375 -17.34375 C 28.878906 -16.863281 30.21875 -16.070312 31.125 -14.96875 C 32.039062 -13.863281 32.5 -12.597656 32.5 -11.171875 C 32.5 -8.921875 31.789062 -6.96875 30.375 -5.3125 C 28.96875 -3.65625 26.90625 -2.375 24.1875 -1.46875 C 21.476562 -0.570312 18.210938 -0.125 14.390625 -0.125 C 12.960938 -0.125 11.820312 -0.164062 10.96875 -0.25 C 10.9375 0.539062 10.59375 1.132812 9.9375 1.53125 C 9.28125 1.9375 8.4375 2.140625 7.40625 2.140625 C 6.382812 2.140625 5.679688 1.910156 5.296875 1.453125 C 4.910156 0.992188 4.742188 0.320312 4.796875 -0.5625 C 5.054688 -4.550781 5.554688 -8.738281 6.296875 -13.125 C 7.035156 -17.507812 7.976562 -21.742188 9.125 -25.828125 C 9.320312 -26.535156 9.71875 -27.03125 10.3125 -27.3125 C 10.914062 -27.601562 11.703125 -27.75 12.671875 -27.75 C 14.421875 -27.75 15.296875 -27.265625 15.296875 -26.296875 C 15.296875 -25.898438 15.207031 -25.441406 15.03125 -24.921875 C 14.289062 -22.691406 13.546875 -19.671875 12.796875 -15.859375 C 12.054688 -12.054688 11.53125 -8.425781 11.21875 -4.96875 C 12.59375 -4.851562 13.707031 -4.796875 14.5625 -4.796875 C 18.5625 -4.796875 21.492188 -5.375 23.359375 -6.53125 C 25.234375 -7.6875 26.171875 -9.164062 26.171875 -10.96875 C 26.171875 -12.21875 25.632812 -13.269531 24.5625 -14.125 C 23.488281 -14.988281 21.695312 -15.460938 19.1875 -15.546875 C 18.613281 -15.578125 18.210938 -15.71875 17.984375 -15.96875 C 17.753906 -16.226562 17.640625 -16.644531 17.640625 -17.21875 C 17.640625 -18.039062 17.8125 -18.707031 18.15625 -19.21875 C 18.5 -19.738281 19.128906 -20.015625 20.046875 -20.046875 C 22.066406 -20.097656 23.898438 -20.394531 25.546875 -20.9375 C 27.191406 -21.476562 28.484375 -22.242188 29.421875 -23.234375 C 30.367188 -24.222656 30.84375 -25.375 30.84375 -26.6875 C 30.84375 -28.34375 30.023438 -29.644531 28.390625 -30.59375 C 26.765625 -31.550781 24.269531 -32.03125 20.90625 -32.03125 C 17.84375 -32.03125 14.882812 -31.640625 12.03125 -30.859375 C 9.175781 -30.078125 6.75 -29.082031 4.75 -27.875 C 3.84375 -27.332031 3.070312 -27.0625 2.4375 -27.0625 C 1.925781 -27.0625 1.535156 -27.238281 1.265625 -27.59375 C 0.992188 -27.957031 0.859375 -28.410156 0.859375 -28.953125 C 0.859375 -29.660156 1.003906 -30.269531 1.296875 -30.78125 C 1.597656 -31.300781 2.320312 -31.890625 3.46875 -32.546875 C 5.863281 -33.921875 8.675781 -34.992188 11.90625 -35.765625 C 15.132812 -36.535156 18.429688 -36.921875 21.796875 -36.921875 C 26.960938 -36.921875 30.816406 -36.046875 33.359375 -34.296875 C 35.898438 -32.554688 37.171875 -30.257812 37.171875 -27.40625 Z M 37.171875 -27.40625 "/></g></g></g><g fill="#ffffff" fill-opacity="1"><g transform="translate(208.88627, 299.718732)"><g><path d="M 7.328125 0.21875 C 5.554688 0.21875 4.140625 -0.421875 3.078125 -1.703125 C 2.023438 -2.992188 1.5 -4.679688 1.5 -6.765625 C 1.5 -9.046875 2.023438 -11.207031 3.078125 -13.25 C 4.140625 -15.289062 5.546875 -16.929688 7.296875 -18.171875 C 9.054688 -19.421875 10.921875 -20.046875 12.890625 -20.046875 C 13.515625 -20.046875 13.929688 -19.921875 14.140625 -19.671875 C 14.359375 -19.429688 14.539062 -19 14.6875 -18.375 C 15.289062 -18.488281 15.921875 -18.546875 16.578125 -18.546875 C 17.972656 -18.546875 18.671875 -18.046875 18.671875 -17.046875 C 18.671875 -16.441406 18.457031 -15.015625 18.03125 -12.765625 C 17.375 -9.484375 17.046875 -7.195312 17.046875 -5.90625 C 17.046875 -5.476562 17.148438 -5.132812 17.359375 -4.875 C 17.578125 -4.625 17.859375 -4.5 18.203125 -4.5 C 18.742188 -4.5 19.398438 -4.847656 20.171875 -5.546875 C 20.941406 -6.242188 21.984375 -7.378906 23.296875 -8.953125 C 23.640625 -9.347656 24.023438 -9.546875 24.453125 -9.546875 C 24.828125 -9.546875 25.117188 -9.375 25.328125 -9.03125 C 25.546875 -8.6875 25.65625 -8.21875 25.65625 -7.625 C 25.65625 -6.476562 25.382812 -5.59375 24.84375 -4.96875 C 23.664062 -3.507812 22.421875 -2.28125 21.109375 -1.28125 C 19.796875 -0.28125 18.523438 0.21875 17.296875 0.21875 C 16.359375 0.21875 15.492188 -0.101562 14.703125 -0.75 C 13.921875 -1.394531 13.332031 -2.273438 12.9375 -3.390625 C 11.445312 -0.984375 9.578125 0.21875 7.328125 0.21875 Z M 8.859375 -4.109375 C 9.492188 -4.109375 10.09375 -4.476562 10.65625 -5.21875 C 11.226562 -5.96875 11.644531 -6.957031 11.90625 -8.1875 L 13.484375 -16.0625 C 12.285156 -16.03125 11.179688 -15.578125 10.171875 -14.703125 C 9.160156 -13.835938 8.351562 -12.691406 7.75 -11.265625 C 7.15625 -9.835938 6.859375 -8.320312 6.859375 -6.71875 C 6.859375 -5.832031 7.035156 -5.175781 7.390625 -4.75 C 7.742188 -4.320312 8.234375 -4.109375 8.859375 -4.109375 Z M 8.859375 -4.109375 "/></g></g></g><g fill="#ffffff" fill-opacity="1"><g transform="translate(228.155339, 299.718732)"><g><path d="M 23.421875 -9.546875 C 23.796875 -9.546875 24.085938 -9.375 24.296875 -9.03125 C 24.515625 -8.6875 24.625 -8.21875 24.625 -7.625 C 24.625 -6.5625 24.351562 -5.675781 23.8125 -4.96875 C 22.46875 -3.226562 20.800781 -1.859375 18.8125 -0.859375 C 16.832031 0.140625 14.601562 0.640625 12.125 0.640625 C 10.175781 0.640625 8.488281 0.347656 7.0625 -0.234375 C 5.632812 -0.816406 4.539062 -1.613281 3.78125 -2.625 C 3.03125 -3.644531 2.65625 -4.78125 2.65625 -6.03125 C 2.65625 -7.914062 3.410156 -9.585938 4.921875 -11.046875 C 6.429688 -12.503906 8.601562 -13.90625 11.4375 -15.25 L 4.40625 -15.078125 C 3.78125 -15.046875 3.300781 -15.265625 2.96875 -15.734375 C 2.644531 -16.210938 2.484375 -16.78125 2.484375 -17.4375 C 2.484375 -18.113281 2.644531 -18.71875 2.96875 -19.25 C 3.300781 -19.78125 3.753906 -20.046875 4.328125 -20.046875 C 5.640625 -20.046875 7.394531 -19.945312 9.59375 -19.75 C 10.050781 -19.71875 10.882812 -19.65625 12.09375 -19.5625 C 13.3125 -19.476562 14.332031 -19.4375 15.15625 -19.4375 C 15.445312 -19.4375 15.988281 -19.550781 16.78125 -19.78125 C 16.925781 -19.8125 17.207031 -19.882812 17.625 -20 C 18.039062 -20.113281 18.390625 -20.171875 18.671875 -20.171875 C 19.128906 -20.171875 19.503906 -19.96875 19.796875 -19.5625 C 20.097656 -19.164062 20.25 -18.554688 20.25 -17.734375 C 20.25 -16.816406 20.035156 -16.097656 19.609375 -15.578125 C 19.179688 -15.066406 18.515625 -14.613281 17.609375 -14.21875 C 15.003906 -13.101562 12.84375 -11.910156 11.125 -10.640625 C 9.414062 -9.367188 8.5625 -8.109375 8.5625 -6.859375 C 8.5625 -6.054688 8.929688 -5.394531 9.671875 -4.875 C 10.421875 -4.363281 11.523438 -4.109375 12.984375 -4.109375 C 14.578125 -4.109375 16.191406 -4.507812 17.828125 -5.3125 C 19.472656 -6.113281 20.953125 -7.328125 22.265625 -8.953125 C 22.609375 -9.347656 22.992188 -9.546875 23.421875 -9.546875 Z M 23.421875 -9.546875 "/></g></g></g><g fill="#ffffff" fill-opacity="1"><g transform="translate(246.353904, 299.718732)"><g><path d="M 7.328125 0.21875 C 5.554688 0.21875 4.140625 -0.421875 3.078125 -1.703125 C 2.023438 -2.992188 1.5 -4.679688 1.5 -6.765625 C 1.5 -9.046875 2.023438 -11.207031 3.078125 -13.25 C 4.140625 -15.289062 5.546875 -16.929688 7.296875 -18.171875 C 9.054688 -19.421875 10.921875 -20.046875 12.890625 -20.046875 C 13.515625 -20.046875 13.929688 -19.921875 14.140625 -19.671875 C 14.359375 -19.429688 14.539062 -19 14.6875 -18.375 C 15.289062 -18.488281 15.921875 -18.546875 16.578125 -18.546875 C 17.972656 -18.546875 18.671875 -18.046875 18.671875 -17.046875 C 18.671875 -16.441406 18.457031 -15.015625 18.03125 -12.765625 C 17.375 -9.484375 17.046875 -7.195312 17.046875 -5.90625 C 17.046875 -5.476562 17.148438 -5.132812 17.359375 -4.875 C 17.578125 -4.625 17.859375 -4.5 18.203125 -4.5 C 18.742188 -4.5 19.398438 -4.847656 20.171875 -5.546875 C 20.941406 -6.242188 21.984375 -7.378906 23.296875 -8.953125 C 23.640625 -9.347656 24.023438 -9.546875 24.453125 -9.546875 C 24.828125 -9.546875 25.117188 -9.375 25.328125 -9.03125 C 25.546875 -8.6875 25.65625 -8.21875 25.65625 -7.625 C 25.65625 -6.476562 25.382812 -5.59375 24.84375 -4.96875 C 23.664062 -3.507812 22.421875 -2.28125 21.109375 -1.28125 C 19.796875 -0.28125 18.523438 0.21875 17.296875 0.21875 C 16.359375 0.21875 15.492188 -0.101562 14.703125 -0.75 C 13.921875 -1.394531 13.332031 -2.273438 12.9375 -3.390625 C 11.445312 -0.984375 9.578125 0.21875 7.328125 0.21875 Z M 8.859375 -4.109375 C 9.492188 -4.109375 10.09375 -4.476562 10.65625 -5.21875 C 11.226562 -5.96875 11.644531 -6.957031 11.90625 -8.1875 L 13.484375 -16.0625 C 12.285156 -16.03125 11.179688 -15.578125 10.171875 -14.703125 C 9.160156 -13.835938 8.351562 -12.691406 7.75 -11.265625 C 7.15625 -9.835938 6.859375 -8.320312 6.859375 -6.71875 C 6.859375 -5.832031 7.035156 -5.175781 7.390625 -4.75 C 7.742188 -4.320312 8.234375 -4.109375 8.859375 -4.109375 Z M 8.859375 -4.109375 "/></g></g></g><g fill="#ffffff" fill-opacity="1"><g transform="translate(265.622972, 299.718732)"><g><path d="M 7.328125 0.21875 C 5.554688 0.21875 4.140625 -0.421875 3.078125 -1.703125 C 2.023438 -2.992188 1.5 -4.679688 1.5 -6.765625 C 1.5 -9.046875 2.023438 -11.207031 3.078125 -13.25 C 4.140625 -15.289062 5.546875 -16.929688 7.296875 -18.171875 C 9.054688 -19.421875 10.921875 -20.046875 12.890625 -20.046875 C 13.515625 -20.046875 13.929688 -19.921875 14.140625 -19.671875 C 14.359375 -19.429688 14.539062 -19 14.6875 -18.375 C 15.289062 -18.488281 15.921875 -18.546875 16.578125 -18.546875 C 17.972656 -18.546875 18.671875 -18.046875 18.671875 -17.046875 C 18.671875 -16.441406 18.457031 -15.015625 18.03125 -12.765625 C 17.375 -9.484375 17.046875 -7.195312 17.046875 -5.90625 C 17.046875 -5.476562 17.148438 -5.132812 17.359375 -4.875 C 17.578125 -4.625 17.859375 -4.5 18.203125 -4.5 C 18.742188 -4.5 19.398438 -4.847656 20.171875 -5.546875 C 20.941406 -6.242188 21.984375 -7.378906 23.296875 -8.953125 C 23.640625 -9.347656 24.023438 -9.546875 24.453125 -9.546875 C 24.828125 -9.546875 25.117188 -9.375 25.328125 -9.03125 C 25.546875 -8.6875 25.65625 -8.21875 25.65625 -7.625 C 25.65625 -6.476562 25.382812 -5.59375 24.84375 -4.96875 C 23.664062 -3.507812 22.421875 -2.28125 21.109375 -1.28125 C 19.796875 -0.28125 18.523438 0.21875 17.296875 0.21875 C 16.359375 0.21875 15.492188 -0.101562 14.703125 -0.75 C 13.921875 -1.394531 13.332031 -2.273438 12.9375 -3.390625 C 11.445312 -0.984375 9.578125 0.21875 7.328125 0.21875 Z M 8.859375 -4.109375 C 9.492188 -4.109375 10.09375 -4.476562 10.65625 -5.21875 C 11.226562 -5.96875 11.644531 -6.957031 11.90625 -8.1875 L 13.484375 -16.0625 C 12.285156 -16.03125 11.179688 -15.578125 10.171875 -14.703125 C 9.160156 -13.835938 8.351562 -12.691406 7.75 -11.265625 C 7.15625 -9.835938 6.859375 -8.320312 6.859375 -6.71875 C 6.859375 -5.832031 7.035156 -5.175781 7.390625 -4.75 C 7.742188 -4.320312 8.234375 -4.109375 8.859375 -4.109375 Z M 8.859375 -4.109375 "/></g></g></g><g fill="#ffffff" fill-opacity="1"><g transform="translate(284.892052, 299.718732)"><g><path d="M 5.09375 0.21875 C 4.007812 0.21875 3.242188 -0.351562 2.796875 -1.5 C 2.359375 -2.644531 2.140625 -4.472656 2.140625 -6.984375 C 2.140625 -10.691406 2.664062 -14.21875 3.71875 -17.5625 C 3.976562 -18.382812 4.398438 -18.988281 4.984375 -19.375 C 5.578125 -19.757812 6.398438 -19.953125 7.453125 -19.953125 C 8.023438 -19.953125 8.425781 -19.878906 8.65625 -19.734375 C 8.882812 -19.597656 9 -19.332031 9 -18.9375 C 9 -18.476562 8.78125 -17.445312 8.34375 -15.84375 C 8.0625 -14.707031 7.832031 -13.707031 7.65625 -12.84375 C 7.488281 -11.988281 7.347656 -10.929688 7.234375 -9.671875 C 8.179688 -12.128906 9.238281 -14.128906 10.40625 -15.671875 C 11.570312 -17.210938 12.71875 -18.3125 13.84375 -18.96875 C 14.976562 -19.625 16.015625 -19.953125 16.953125 -19.953125 C 18.816406 -19.953125 19.75 -19.023438 19.75 -17.171875 C 19.75 -16.804688 19.617188 -15.90625 19.359375 -14.46875 C 19.128906 -13.332031 19.015625 -12.617188 19.015625 -12.328125 C 19.015625 -11.328125 19.375 -10.828125 20.09375 -10.828125 C 20.882812 -10.828125 21.910156 -11.457031 23.171875 -12.71875 C 23.546875 -13.09375 23.929688 -13.28125 24.328125 -13.28125 C 24.703125 -13.28125 24.992188 -13.113281 25.203125 -12.78125 C 25.421875 -12.457031 25.53125 -12.023438 25.53125 -11.484375 C 25.53125 -10.421875 25.242188 -9.59375 24.671875 -9 C 23.867188 -8.164062 22.929688 -7.457031 21.859375 -6.875 C 20.785156 -6.289062 19.648438 -6 18.453125 -6 C 16.941406 -6 15.789062 -6.382812 15 -7.15625 C 14.21875 -7.925781 13.828125 -8.96875 13.828125 -10.28125 C 13.828125 -10.707031 13.875 -11.132812 13.96875 -11.5625 C 14.019531 -12.132812 14.046875 -12.519531 14.046875 -12.71875 C 14.046875 -13.175781 13.890625 -13.40625 13.578125 -13.40625 C 13.148438 -13.40625 12.582031 -12.925781 11.875 -11.96875 C 11.175781 -11.007812 10.484375 -9.742188 9.796875 -8.171875 C 9.117188 -6.609375 8.566406 -4.957031 8.140625 -3.21875 C 7.828125 -1.875 7.460938 -0.960938 7.046875 -0.484375 C 6.628906 -0.015625 5.976562 0.21875 5.09375 0.21875 Z M 5.09375 0.21875 "/></g></g></g><g fill="#ffffff" fill-opacity="1"><g transform="translate(173.872509, 239.370277)"><g><path d="M 5.515625 -4 L 2.609375 -4 L 2.609375 -1.546875 L 6.046875 -1.546875 L 6.046875 0 L 0.75 0 L 0.75 -9.25 L 6.03125 -9.25 L 6.03125 -7.6875 L 2.609375 -7.6875 L 2.609375 -5.5 L 5.515625 -5.5 Z M 5.515625 -4 "/></g></g></g><g fill="#ffffff" fill-opacity="1"><g transform="translate(179.989992, 239.370277)"><g><path d="M 3.6875 -1.84375 C 3.6875 -1.988281 3.613281 -2.125 3.46875 -2.25 C 3.320312 -2.382812 3 -2.5625 2.5 -2.78125 C 1.757812 -3.082031 1.25 -3.394531 0.96875 -3.71875 C 0.695312 -4.039062 0.5625 -4.441406 0.5625 -4.921875 C 0.5625 -5.523438 0.773438 -6.019531 1.203125 -6.40625 C 1.640625 -6.800781 2.21875 -7 2.9375 -7 C 3.6875 -7 4.285156 -6.800781 4.734375 -6.40625 C 5.191406 -6.019531 5.421875 -5.5 5.421875 -4.84375 L 3.625 -4.84375 C 3.625 -5.40625 3.390625 -5.6875 2.921875 -5.6875 C 2.734375 -5.6875 2.578125 -5.625 2.453125 -5.5 C 2.328125 -5.382812 2.265625 -5.222656 2.265625 -5.015625 C 2.265625 -4.859375 2.332031 -4.722656 2.46875 -4.609375 C 2.601562 -4.492188 2.925781 -4.328125 3.4375 -4.109375 C 4.164062 -3.835938 4.679688 -3.535156 4.984375 -3.203125 C 5.285156 -2.867188 5.4375 -2.4375 5.4375 -1.90625 C 5.4375 -1.289062 5.207031 -0.796875 4.75 -0.421875 C 4.289062 -0.0546875 3.6875 0.125 2.9375 0.125 C 2.425781 0.125 1.976562 0.0234375 1.59375 -0.171875 C 1.207031 -0.367188 0.90625 -0.640625 0.6875 -0.984375 C 0.476562 -1.335938 0.375 -1.71875 0.375 -2.125 L 2.078125 -2.125 C 2.085938 -1.8125 2.160156 -1.578125 2.296875 -1.421875 C 2.429688 -1.265625 2.65625 -1.1875 2.96875 -1.1875 C 3.445312 -1.1875 3.6875 -1.40625 3.6875 -1.84375 Z M 3.6875 -1.84375 "/></g></g></g><g fill="#ffffff" fill-opacity="1"><g transform="translate(185.631538, 239.370277)"><g><path d="M 2.75 -8.5625 L 2.75 -6.875 L 3.65625 -6.875 L 3.65625 -5.515625 L 2.75 -5.515625 L 2.75 -2.109375 C 2.75 -1.835938 2.785156 -1.648438 2.859375 -1.546875 C 2.929688 -1.441406 3.070312 -1.390625 3.28125 -1.390625 C 3.457031 -1.390625 3.597656 -1.40625 3.703125 -1.4375 L 3.6875 -0.046875 C 3.382812 0.0664062 3.054688 0.125 2.703125 0.125 C 1.546875 0.125 0.960938 -0.535156 0.953125 -1.859375 L 0.953125 -5.515625 L 0.15625 -5.515625 L 0.15625 -6.875 L 0.953125 -6.875 L 0.953125 -8.5625 Z M 2.75 -8.5625 "/></g></g></g><g fill="#ffffff" fill-opacity="1"><g transform="translate(189.36302, 239.370277)"><g/></g></g><g fill="#ffffff" fill-opacity="1"><g transform="translate(192.098213, 239.370277)"><g><path d="M 6.046875 0 L 0.609375 0 L 0.609375 -1.265625 L 3.109375 -4.453125 C 3.421875 -4.890625 3.648438 -5.273438 3.796875 -5.609375 C 3.953125 -5.941406 4.03125 -6.257812 4.03125 -6.5625 C 4.03125 -6.96875 3.957031 -7.285156 3.8125 -7.515625 C 3.675781 -7.753906 3.472656 -7.875 3.203125 -7.875 C 2.910156 -7.875 2.675781 -7.738281 2.5 -7.46875 C 2.332031 -7.195312 2.25 -6.816406 2.25 -6.328125 L 0.453125 -6.328125 C 0.453125 -6.890625 0.566406 -7.40625 0.796875 -7.875 C 1.035156 -8.351562 1.367188 -8.722656 1.796875 -8.984375 C 2.222656 -9.242188 2.703125 -9.375 3.234375 -9.375 C 4.054688 -9.375 4.695312 -9.144531 5.15625 -8.6875 C 5.613281 -8.226562 5.84375 -7.582031 5.84375 -6.75 C 5.84375 -6.226562 5.710938 -5.695312 5.453125 -5.15625 C 5.203125 -4.625 4.75 -3.96875 4.09375 -3.1875 L 2.90625 -1.484375 L 6.046875 -1.484375 Z M 6.046875 0 "/></g></g></g><g fill="#ffffff" fill-opacity="1"><g transform="translate(198.412411, 239.370277)"><g><path d="M 5.96875 -3.828125 C 5.96875 -2.546875 5.734375 -1.566406 5.265625 -0.890625 C 4.804688 -0.210938 4.148438 0.125 3.296875 0.125 C 2.441406 0.125 1.78125 -0.203125 1.3125 -0.859375 C 0.851562 -1.515625 0.617188 -2.457031 0.609375 -3.6875 L 0.609375 -5.4375 C 0.609375 -6.707031 0.835938 -7.679688 1.296875 -8.359375 C 1.753906 -9.035156 2.414062 -9.375 3.28125 -9.375 C 4.144531 -9.375 4.804688 -9.035156 5.265625 -8.359375 C 5.722656 -7.691406 5.957031 -6.738281 5.96875 -5.5 Z M 4.171875 -5.6875 C 4.171875 -6.414062 4.097656 -6.960938 3.953125 -7.328125 C 3.804688 -7.691406 3.582031 -7.875 3.28125 -7.875 C 2.707031 -7.875 2.410156 -7.207031 2.390625 -5.875 L 2.390625 -3.578125 C 2.390625 -2.828125 2.460938 -2.269531 2.609375 -1.90625 C 2.753906 -1.539062 2.984375 -1.359375 3.296875 -1.359375 C 3.585938 -1.359375 3.800781 -1.53125 3.9375 -1.875 C 4.082031 -2.21875 4.160156 -2.738281 4.171875 -3.4375 Z M 4.171875 -5.6875 "/></g></g></g><g fill="#ffffff" fill-opacity="1"><g transform="translate(204.726608, 239.370277)"><g><path d="M 6.046875 0 L 0.609375 0 L 0.609375 -1.265625 L 3.109375 -4.453125 C 3.421875 -4.890625 3.648438 -5.273438 3.796875 -5.609375 C 3.953125 -5.941406 4.03125 -6.257812 4.03125 -6.5625 C 4.03125 -6.96875 3.957031 -7.285156 3.8125 -7.515625 C 3.675781 -7.753906 3.472656 -7.875 3.203125 -7.875 C 2.910156 -7.875 2.675781 -7.738281 2.5 -7.46875 C 2.332031 -7.195312 2.25 -6.816406 2.25 -6.328125 L 0.453125 -6.328125 C 0.453125 -6.890625 0.566406 -7.40625 0.796875 -7.875 C 1.035156 -8.351562 1.367188 -8.722656 1.796875 -8.984375 C 2.222656 -9.242188 2.703125 -9.375 3.234375 -9.375 C 4.054688 -9.375 4.695312 -9.144531 5.15625 -8.6875 C 5.613281 -8.226562 5.84375 -7.582031 5.84375 -6.75 C 5.84375 -6.226562 5.710938 -5.695312 5.453125 -5.15625 C 5.203125 -4.625 4.75 -3.96875 4.09375 -3.1875 L 2.90625 -1.484375 L 6.046875 -1.484375 Z M 6.046875 0 "/></g></g></g><g fill="#ffffff" fill-opacity="1"><g transform="translate(211.040805, 239.370277)"><g><path d="M 2.203125 -5.4375 L 3.078125 -5.4375 C 3.398438 -5.4375 3.640625 -5.550781 3.796875 -5.78125 C 3.953125 -6.007812 4.03125 -6.316406 4.03125 -6.703125 C 4.03125 -7.078125 3.953125 -7.363281 3.796875 -7.5625 C 3.640625 -7.769531 3.425781 -7.875 3.15625 -7.875 C 2.90625 -7.875 2.695312 -7.773438 2.53125 -7.578125 C 2.375 -7.390625 2.296875 -7.144531 2.296875 -6.84375 L 0.515625 -6.84375 C 0.515625 -7.332031 0.625 -7.765625 0.84375 -8.140625 C 1.0625 -8.523438 1.367188 -8.828125 1.765625 -9.046875 C 2.171875 -9.265625 2.617188 -9.375 3.109375 -9.375 C 3.953125 -9.375 4.613281 -9.132812 5.09375 -8.65625 C 5.582031 -8.1875 5.828125 -7.546875 5.828125 -6.734375 C 5.828125 -6.316406 5.71875 -5.925781 5.5 -5.5625 C 5.28125 -5.207031 4.992188 -4.9375 4.640625 -4.75 C 5.078125 -4.5625 5.398438 -4.28125 5.609375 -3.90625 C 5.828125 -3.539062 5.9375 -3.101562 5.9375 -2.59375 C 5.9375 -1.769531 5.675781 -1.109375 5.15625 -0.609375 C 4.632812 -0.117188 3.945312 0.125 3.09375 0.125 C 2.300781 0.125 1.65625 -0.117188 1.15625 -0.609375 C 0.664062 -1.097656 0.421875 -1.738281 0.421875 -2.53125 L 2.21875 -2.53125 C 2.21875 -2.195312 2.304688 -1.914062 2.484375 -1.6875 C 2.660156 -1.46875 2.878906 -1.359375 3.140625 -1.359375 C 3.453125 -1.359375 3.695312 -1.472656 3.875 -1.703125 C 4.050781 -1.929688 4.140625 -2.238281 4.140625 -2.625 C 4.140625 -3.53125 3.785156 -3.988281 3.078125 -4 L 2.203125 -4 Z M 2.203125 -5.4375 "/></g></g></g></svg>